<svg width="154" height="50" viewBox="0 0 154 50" fill="none" xmlns="http://www.w3.org/2000/svg">
<rect width="154" height="50" rx="6" fill="black"/>
<rect x="5" y="28" width="6" height="48" transform="rotate(-90 5 28)" fill="white" stroke="black" stroke-width="2"/>
<path d="M78.75 40.75V45.125L73.5 41.625L68.25 45.125V40.75H67.375C65.7505 40.75 64.1926 40.1047 63.044 38.956C61.8953 37.8074 61.25 36.2495 61.25 34.625V12.75C61.25 11.3576 61.8031 10.0223 62.7877 9.03769C63.7723 8.05312 65.1076 7.5 66.5 7.5H91C91.4641 7.5 91.9092 7.68437 92.2374 8.01256C92.5656 8.34075 92.75 8.78587 92.75 9.25V39C92.75 39.4641 92.5656 39.9092 92.2374 40.2374C91.9092 40.5656 91.4641 40.75 91 40.75H78.75ZM78.75 37.25H89.25V32H67.375C66.6788 32 66.0111 32.2766 65.5188 32.7688C65.0266 33.2611 64.75 33.9288 64.75 34.625C64.75 35.3212 65.0266 35.9889 65.5188 36.4812C66.0111 36.9734 66.6788 37.25 67.375 37.25H68.25V33.75H78.75V37.25ZM89.25 28.5V11H66.5V28.5612C66.7898 28.5201 67.0823 28.4997 67.375 28.5H89.25ZM68.25 12.75H71.75V16.25H68.25V12.75ZM68.25 18H71.75V21.5H68.25V18ZM68.25 23.25H71.75V26.75H68.25V23.25Z" fill="url(#paint0_linear_12_105)"/>
<rect x="101" y="28" width="6" height="48" transform="rotate(-90 101 28)" fill="white" stroke="black" stroke-width="2"/>
<defs>
<linearGradient id="paint0_linear_12_105" x1="77" y1="7.5" x2="77" y2="45.125" gradientUnits="userSpaceOnUse">
<stop stop-color="#AB2836"/>
<stop offset="1" stop-color="#643047"/>
</linearGradient>
</defs>
</svg>
